<svg width="16" height="17" viewBox="0 0 16 17" fill="none" xmlns="http://www.w3.org/2000/svg">
<path fill-rule="evenodd" clip-rule="evenodd" d="M4.00016 3.1665C2.5274 3.1665 1.3335 4.36041 1.3335 5.83317L1.3335 11.1665C1.3335 12.6393 2.5274 13.8332 4.00016 13.8332L12.0002 13.8332C13.4729 13.8332 14.6668 12.6393 14.6668 11.1665L14.6668 5.83317C14.6668 4.36041 13.4729 3.1665 12.0002 3.1665L4.00016 3.1665ZM9.3335 4.49984L6.66683 4.49984L6.66683 12.4998L9.3335 12.4998L9.3335 4.49984ZM10.6668 4.49984L10.6668 12.4998H12.0002C12.7365 12.4998 13.3335 11.9029 13.3335 11.1665L13.3335 5.83317C13.3335 5.09679 12.7365 4.49984 12.0002 4.49984H10.6668ZM4.00016 12.4998H5.3335L5.3335 4.49984L4.00016 4.49984C3.26378 4.49984 2.66683 5.09679 2.66683 5.83317L2.66683 11.1665C2.66683 11.9029 3.26378 12.4998 4.00016 12.4998Z" fill="#1F1C14"/>
</svg>
