<svg width="12" height="15" viewBox="0 0 12 15" fill="none" xmlns="http://www.w3.org/2000/svg">
<path d="M11.3334 4.83334L7.3334 1.32667C6.96671 0.998701 6.49202 0.817383 6.00006 0.817383C5.50811 0.817383 5.03341 0.998701 4.66673 1.32667L0.66673 4.83334C0.454975 5.02272 0.285997 5.25504 0.171044 5.51483C0.0560923 5.77463 -0.00219504 6.05592 6.31961e-05 6.34V12.1667C6.31961e-05 12.6971 0.210777 13.2058 0.58585 13.5809C0.960922 13.956 1.46963 14.1667 2.00006 14.1667H10.0001C10.5305 14.1667 11.0392 13.956 11.4143 13.5809C11.7893 13.2058 12.0001 12.6971 12.0001 12.1667V6.33334C12.0014 6.05038 11.9426 5.77036 11.8277 5.51179C11.7128 5.25322 11.5443 5.02197 11.3334 4.83334ZM7.3334 12.8333H4.66673V9.5C4.66673 9.32319 4.73697 9.15362 4.86199 9.0286C4.98702 8.90357 5.15658 8.83334 5.3334 8.83334H6.66673C6.84354 8.83334 7.01311 8.90357 7.13813 9.0286C7.26316 9.15362 7.3334 9.32319 7.3334 9.5V12.8333ZM10.6667 12.1667C10.6667 12.3435 10.5965 12.5131 10.4715 12.6381C10.3464 12.7631 10.1769 12.8333 10.0001 12.8333H8.66673V9.5C8.66673 8.96957 8.45602 8.46086 8.08094 8.08579C7.70587 7.71072 7.19716 7.5 6.66673 7.5H5.3334C4.80296 7.5 4.29426 7.71072 3.91918 8.08579C3.54411 8.46086 3.3334 8.96957 3.3334 9.5V12.8333H2.00006C1.82325 12.8333 1.65368 12.7631 1.52866 12.6381C1.40363 12.5131 1.3334 12.3435 1.3334 12.1667V6.33334C1.33352 6.23868 1.35379 6.14513 1.39287 6.05892C1.43196 5.97271 1.48895 5.89581 1.56006 5.83334L5.56006 2.33334C5.68172 2.22646 5.83812 2.16751 6.00006 2.16751C6.162 2.16751 6.3184 2.22646 6.44006 2.33334L10.4401 5.83334C10.5112 5.89581 10.5682 5.97271 10.6073 6.05892C10.6463 6.14513 10.6666 6.23868 10.6667 6.33334V12.1667Z" fill="black"/>
</svg>
