<svg width="16" height="18" viewBox="0 0 16 18" fill="none" xmlns="http://www.w3.org/2000/svg">
<path d="M15.9165 11.4998C15.9147 10.9996 15.7628 10.5114 15.4805 10.0984C15.1983 9.68542 14.7986 9.3666 14.3332 9.18318L15.8915 3.34984C15.9241 3.22561 15.9275 3.09554 15.9014 2.96977C15.8754 2.84401 15.8207 2.72596 15.7415 2.62485C15.6606 2.5301 15.5594 2.45471 15.4455 2.40424C15.3315 2.35376 15.2077 2.32948 15.0832 2.33318H3.6665L3.3915 1.28318C3.34369 1.1056 3.23848 0.948832 3.09228 0.837291C2.94607 0.72575 2.76707 0.665705 2.58317 0.666512H0.916504V2.33318H1.9415L4.00817 10.0498C4.057 10.2316 4.16595 10.3916 4.31727 10.5035C4.46859 10.6155 4.65337 10.673 4.8415 10.6665H13.4165C13.6375 10.6665 13.8495 10.7543 14.0058 10.9106C14.162 11.0669 14.2498 11.2788 14.2498 11.4998C14.2498 11.7209 14.162 11.9328 14.0058 12.0891C13.8495 12.2454 13.6375 12.3332 13.4165 12.3332H2.58317C2.36216 12.3332 2.1502 12.421 1.99392 12.5773C1.83763 12.7335 1.74984 12.9455 1.74984 13.1665C1.74984 13.3875 1.83763 13.5995 1.99392 13.7558C2.1502 13.912 2.36216 13.9998 2.58317 13.9998H3.5665C3.42945 14.3775 3.38541 14.7825 3.43811 15.1808C3.49082 15.579 3.63871 15.9587 3.86927 16.2876C4.09983 16.6166 4.40627 16.8852 4.76263 17.0706C5.119 17.256 5.51479 17.3528 5.9165 17.3528C6.31822 17.3528 6.71401 17.256 7.07038 17.0706C7.42674 16.8852 7.73318 16.6166 7.96374 16.2876C8.1943 15.9587 8.34219 15.579 8.3949 15.1808C8.4476 14.7825 8.40356 14.3775 8.2665 13.9998H10.2332C10.1084 14.3437 10.0606 14.7107 10.0932 15.075C10.1257 15.4394 10.2378 15.7921 10.4215 16.1084C10.6053 16.4247 10.8562 16.6968 11.1565 16.9055C11.4569 17.1142 11.7994 17.2545 12.1599 17.3165C12.5204 17.3784 12.8901 17.3605 13.2429 17.264C13.5957 17.1675 13.923 16.9947 14.2018 16.7579C14.4806 16.5211 14.704 16.226 14.8563 15.8934C15.0086 15.5609 15.086 15.1989 15.0832 14.8332C15.0816 14.4026 14.9667 13.9801 14.7498 13.6082C15.1062 13.3835 15.4 13.0724 15.6039 12.7038C15.8079 12.3353 15.9154 11.9211 15.9165 11.4998ZM12.6582 8.99984H5.49984L4.1165 3.99985H13.9998L12.6582 8.99984ZM5.9165 15.6665C5.75169 15.6665 5.59057 15.6176 5.45353 15.5261C5.31649 15.4345 5.20968 15.3044 5.1466 15.1521C5.08353 14.9998 5.06703 14.8323 5.09918 14.6706C5.13134 14.509 5.2107 14.3605 5.32725 14.2439C5.44379 14.1274 5.59228 14.048 5.75393 14.0159C5.91558 13.9837 6.08314 14.0002 6.23541 14.0633C6.38768 14.1264 6.51783 14.2332 6.6094 14.3702C6.70096 14.5072 6.74984 14.6684 6.74984 14.8332C6.74984 15.0542 6.66204 15.2662 6.50576 15.4224C6.34948 15.5787 6.13752 15.6665 5.9165 15.6665ZM12.5832 15.6665C12.4184 15.6665 12.2572 15.6176 12.1202 15.5261C11.9832 15.4345 11.8763 15.3044 11.8133 15.1521C11.7502 14.9998 11.7337 14.8323 11.7658 14.6706C11.798 14.509 11.8774 14.3605 11.9939 14.2439C12.1105 14.1274 12.2589 14.048 12.4206 14.0159C12.5822 13.9837 12.7498 14.0002 12.9021 14.0633C13.0543 14.1264 13.1845 14.2332 13.2761 14.3702C13.3676 14.5072 13.4165 14.6684 13.4165 14.8332C13.4165 15.0542 13.3287 15.2662 13.1724 15.4224C13.0161 15.5787 12.8042 15.6665 12.5832 15.6665Z" fill="#1F1D14"/>
</svg>
