<svg width="16" height="17" viewBox="0 0 16 17" fill="none" xmlns="http://www.w3.org/2000/svg">
<path opacity="0.7" d="M14.4733 14.0266L11.9999 11.5733C12.96 10.3762 13.4249 8.8568 13.2991 7.32747C13.1733 5.79814 12.4664 4.37512 11.3236 3.35103C10.1808 2.32694 8.68914 1.77961 7.15522 1.82158C5.62129 1.86356 4.16175 2.49164 3.0767 3.5767C1.99164 4.66175 1.36356 6.12129 1.32158 7.65522C1.27961 9.18914 1.82694 10.6808 2.85103 11.8236C3.87512 12.9664 5.29814 13.6733 6.82747 13.7991C8.3568 13.9249 9.87621 13.46 11.0733 12.4999L13.5266 14.9533C13.5886 15.0158 13.6623 15.0654 13.7436 15.0992C13.8248 15.133 13.9119 15.1505 13.9999 15.1505C14.0879 15.1505 14.1751 15.133 14.2563 15.0992C14.3376 15.0654 14.4113 15.0158 14.4733 14.9533C14.5934 14.829 14.6606 14.6628 14.6606 14.4899C14.6606 14.317 14.5934 14.1509 14.4733 14.0266ZM7.33327 12.4999C6.41029 12.4999 5.50804 12.2262 4.74061 11.7135C3.97318 11.2007 3.37504 10.4718 3.02183 9.61913C2.66862 8.7664 2.57621 7.82809 2.75627 6.92285C2.93634 6.0176 3.38079 5.18608 4.03344 4.53344C4.68608 3.88079 5.5176 3.43634 6.42285 3.25627C7.32809 3.07621 8.2664 3.16862 9.11913 3.52183C9.97185 3.87504 10.7007 4.47318 11.2135 5.24061C11.7262 6.00804 11.9999 6.91029 11.9999 7.83327C11.9999 9.07095 11.5083 10.2579 10.6331 11.1331C9.75793 12.0083 8.57095 12.4999 7.33327 12.4999Z" fill="black"/>
</svg>
