<svg width="32" height="32" viewBox="0 0 32 32" fill="none" xmlns="http://www.w3.org/2000/svg">
<g opacity="0.8">
<path d="M10.8814 28.5127L11.2898 28.2242C11.2745 28.2026 11.2604 28.1856 11.2508 28.1745L11.2504 28.1741C11.2146 28.1154 11.1862 28.0525 11.1659 27.9868C11.1658 27.9864 11.1657 27.9861 11.1656 27.9857L8.4723 19.0792L8.39857 18.8353L8.15795 18.7516L3.32505 17.0708C3.32501 17.0708 3.32498 17.0708 3.32495 17.0708C2.89902 16.9222 2.52835 16.6476 2.26212 16.2834C1.99587 15.9192 1.84667 15.4827 1.83433 15.0317C1.82199 14.5808 1.94708 14.1367 2.19302 13.7585C2.43867 13.3807 2.79329 13.0865 3.20989 12.9147C3.21036 12.9145 3.21082 12.9144 3.21129 12.9142L27.1028 3.26828L27.1031 3.26815C27.477 3.11688 27.885 3.06983 28.2836 3.13201C28.6822 3.1942 29.0565 3.36329 29.3666 3.62129L29.3674 3.62194C29.6754 3.87713 29.9083 4.21127 30.041 4.58859C30.1738 4.96592 30.2014 5.37223 30.1211 5.76407L30.1209 5.76473L25.7713 27.1174C25.7712 27.1179 25.7711 27.1184 25.7709 27.1189C25.6654 27.6209 25.3906 28.0715 24.9926 28.3952C24.5943 28.7191 24.0967 28.8963 23.5833 28.8971C23.0951 28.8965 22.621 28.7334 22.2357 28.4335L22.2348 28.4328L16.8611 24.27L16.4951 23.9865L16.1843 24.3296L12.6041 28.2824L12.4421 28.4189C12.3931 28.4531 12.3405 28.482 12.2852 28.5049L12.2852 28.5049L12.2817 28.5064C12.2608 28.5152 12.2433 28.5237 12.2311 28.5298L12.2155 28.5378L12.2139 28.5386C12.1386 28.5623 12.0603 28.575 11.9814 28.5764L11.9808 28.5764C11.962 28.5768 11.9448 28.5781 11.9297 28.5798C11.8996 28.5785 11.8696 28.5756 11.8398 28.5712L11.809 28.558L11.7564 28.5536C11.6771 28.5306 11.6017 28.4957 11.5329 28.45L11.5329 28.4499L11.524 28.4443C11.5107 28.4358 11.4958 28.4251 11.4664 28.4027L11.4628 28.4C11.3957 28.3498 11.3367 28.2896 11.2878 28.2215L10.8814 28.5127ZM10.8814 28.5127C10.9601 28.6225 11.0552 28.7195 11.1633 28.8004L10.6877 28.1328C10.7243 28.2518 10.7775 28.365 10.8455 28.4693C10.8511 28.4778 10.8578 28.4852 10.8646 28.4927C10.8705 28.4991 10.8763 28.5055 10.8814 28.5127ZM11.2656 28.198L11.2641 28.1958C11.2646 28.1965 11.2651 28.1973 11.2656 28.198ZM12.8466 20.0026L12.8473 20.0019L16.4463 16.4017L15.8617 15.6047L10.4414 18.4273L10.0738 18.6187L10.1937 19.0155L11.2391 22.4729L12.2075 22.429L12.6202 20.4236L12.6204 20.4226C12.6528 20.2634 12.7315 20.1173 12.8466 20.0026ZM23.2565 27.1152L23.8897 27.6057L24.0523 26.8215L28.4885 5.43349L28.6775 4.52192L27.8132 4.86771L3.84184 14.4576L2.62945 14.9426L3.85573 15.3914L8.82155 17.2086L9.02866 17.2844L9.22428 17.1825L22.778 10.1257L22.7784 10.1255C22.9549 10.0334 23.1585 10.0075 23.3524 10.0526C23.5463 10.0977 23.7177 10.2108 23.8354 10.3713C23.9532 10.5319 24.0095 10.7293 23.9943 10.9278C23.979 11.1263 23.8932 11.3127 23.7524 11.4534L23.7521 11.4536L14.3081 20.8976L14.2021 21.0036L14.1719 21.1504L13.7641 23.1324L13.3952 24.9256L14.6244 23.5688L15.7779 22.2957C15.9191 22.1402 16.1137 22.0437 16.3229 22.0252C16.532 22.0068 16.7404 22.0679 16.9065 22.1962C16.9066 22.1962 16.9067 22.1963 16.9067 22.1963L23.2565 27.1152Z" fill="black" stroke="white"/>
</g>
</svg>
