<svg width="18" height="16" viewBox="0 0 18 16" fill="none" xmlns="http://www.w3.org/2000/svg">
<path d="M15.8001 2.1668C14.9115 1.28739 13.7378 0.75453 12.4909 0.664373C11.244 0.574215 10.0059 0.932699 9.00007 1.67514C7.93978 0.886502 6.62006 0.528897 5.30667 0.674336C3.99327 0.819774 2.78377 1.45745 1.92171 2.45896C1.05966 3.46046 0.609085 4.7514 0.660734 6.07182C0.712383 7.39223 1.26242 8.64403 2.20007 9.57514L7.20007 14.6168C7.66882 15.085 8.30423 15.3479 8.96673 15.3479C9.62924 15.3479 10.2646 15.085 10.7334 14.6168L15.7334 9.57514C16.2258 9.09401 16.6183 8.52031 16.8884 7.887C17.1584 7.25369 17.3006 6.57327 17.3067 5.88483C17.3129 5.19639 17.183 4.51352 16.9245 3.87545C16.6659 3.23739 16.2838 2.65672 15.8001 2.1668ZM14.6251 8.38347L9.62507 13.3835C9.5476 13.4616 9.45543 13.5236 9.35388 13.5659C9.25233 13.6082 9.14341 13.63 9.0334 13.63C8.92339 13.63 8.81447 13.6082 8.71292 13.5659C8.61137 13.5236 8.5192 13.4616 8.44173 13.3835L3.44173 8.38347C2.7882 7.71543 2.42224 6.81803 2.42224 5.88347C2.42224 4.94892 2.7882 4.05152 3.44173 3.38347C4.1077 2.72596 5.00588 2.35728 5.94173 2.35728C6.87759 2.35728 7.77577 2.72596 8.44173 3.38347C8.5192 3.46158 8.61137 3.52357 8.71292 3.56588C8.81447 3.60819 8.92339 3.62997 9.0334 3.62997C9.14341 3.62997 9.25233 3.60819 9.35388 3.56588C9.45543 3.52357 9.5476 3.46158 9.62507 3.38347C10.309 2.83921 11.1694 2.56574 12.0421 2.61522C12.9148 2.66469 13.7387 3.03365 14.3568 3.65172C14.9749 4.2698 15.3438 5.09375 15.3933 5.96644C15.4428 6.83913 15.1693 7.6995 14.6251 8.38347Z" fill="#1F1D14"/>
</svg>
